# xmcd
#
# Track frame offsets:
#	150
#	13280
#	26224
#	39419
#	53732
#	68229
#	83085
#	94995
#	110391
#	123422
#	137574
#	150027
#	160720
#	172453
#	183919
#
# Disc length: 2661 seconds
#
# Revision: 1
# Processed by: cddbd v1.5.1PL2 Copyright (c) Steve Scherf et al.
# Submitted via: audiograbber 1.83.01
#
DISCID=c00a630f
DTITLE=Chartbuster Karaoke - CB90069
DYEAR=2004
DGENRE=Karaoke
TTITLE0=Charlie Rich - Most Beautiful Girl, The
TTITLE1=Charlie Rich - Rollin' With The Flow
TTITLE2=Charlie Rich - Very Special Love Song, A
TTITLE3=Charlie Rich - All Over Me
TTITLE4=Charlie Rich - My Elusive Dreams
TTITLE5=Charlie Rich - Road Song
TTITLE6=Charlie Rich - She Called Me Baby
TTITLE7=Charlie Rich - Since I Fell For You
TTITLE8=Charlie Rich - I Take It On Home
TTITLE9=Charlie Rich - Behind Closed Doors
TTITLE10=Charlie Rich - Big Boss Man
TTITLE11=Charlie Rich - There Won't Be Anymore
TTITLE12=Charlie Rich - I Love My Friend
TTITLE13=Charlie Rich - I Don't See Me In Your Eyes Anymore
TTITLE14=Charlie Rich - Everytime You Touch Me I Get High
EXTD=
EXTT0=
EXTT1=
EXTT2=
EXTT3=
EXTT4=
EXTT5=
EXTT6=
EXTT7=
EXTT8=
EXTT9=
EXTT10=
EXTT11=
EXTT12=
EXTT13=
EXTT14=
PLAYORDER=
